<svg xmlns="http://www.w3.org/2000/svg" xmlns:xlink="http://www.w3.org/1999/xlink" width="217" zoomAndPan="magnify" viewBox="0 0 162.75 34.499999" height="46" preserveAspectRatio="xMidYMid meet" version="1.0"><defs><g/><clipPath id="cfd6f56d67"><path d="M 1.039062 0 L 161.464844 0 L 161.464844 34.007812 L 1.039062 34.007812 Z M 1.039062 0 " clip-rule="nonzero"/></clipPath><clipPath id="7169546554"><path d="M 49.46875 15 L 70 15 L 70 34.007812 L 49.46875 34.007812 Z M 49.46875 15 " clip-rule="nonzero"/></clipPath><clipPath id="c0e6ab3f93"><path d="M 58 5.609375 L 78.300781 5.609375 L 78.300781 22 L 58 22 Z M 58 5.609375 " clip-rule="nonzero"/></clipPath><clipPath id="0713fbeb30"><rect x="0" width="72" y="0" height="12"/></clipPath><clipPath id="9efd643c5a"><rect x="0" width="52" y="0" height="10"/></clipPath></defs><g clip-path="url(#cfd6f56d67)"><path fill="#ffffff" d="M 1.039062 0 L 161.464844 0 L 161.464844 34.007812 L 1.039062 34.007812 Z M 1.039062 0 " fill-opacity="1" fill-rule="nonzero"/><path fill="#ffffff" d="M 1.039062 0 L 161.464844 0 L 161.464844 34.007812 L 1.039062 34.007812 Z M 1.039062 0 " fill-opacity="1" fill-rule="nonzero"/></g><g clip-path="url(#7169546554)"><path fill="#7bc1b7" d="M 68.144531 27.980469 C 67.722656 27.5625 67.335938 27.109375 66.984375 26.636719 L 66.984375 29.410156 C 66.984375 29.507812 66.984375 29.609375 66.976562 29.699219 C 66.972656 29.792969 66.960938 29.890625 66.941406 29.988281 C 66.921875 30.089844 66.902344 30.179688 66.875 30.273438 C 66.847656 30.367188 66.816406 30.457031 66.78125 30.550781 C 66.742188 30.644531 66.707031 30.730469 66.65625 30.816406 C 66.613281 30.902344 66.566406 30.988281 66.507812 31.070312 C 66.453125 31.148438 66.398438 31.230469 66.335938 31.304688 C 66.273438 31.378906 66.214844 31.453125 66.140625 31.519531 C 66.070312 31.585938 65.996094 31.65625 65.921875 31.714844 C 65.851562 31.777344 65.769531 31.839844 65.691406 31.894531 C 65.609375 31.949219 65.523438 32 65.4375 32.050781 C 65.351562 32.097656 65.265625 32.136719 65.171875 32.179688 C 65.078125 32.214844 64.992188 32.253906 64.894531 32.277344 C 64.800781 32.308594 64.710938 32.332031 64.609375 32.351562 C 64.511719 32.371094 64.417969 32.382812 64.320312 32.394531 C 64.222656 32.40625 64.125 32.40625 64.03125 32.40625 C 63.933594 32.40625 63.832031 32.402344 63.742188 32.394531 C 63.640625 32.382812 63.550781 32.371094 63.453125 32.351562 C 63.351562 32.332031 63.261719 32.308594 63.167969 32.277344 C 63.074219 32.246094 62.984375 32.214844 62.890625 32.179688 C 62.796875 32.140625 62.710938 32.097656 62.625 32.050781 C 62.539062 32 62.457031 31.949219 62.371094 31.894531 C 62.292969 31.839844 62.210938 31.785156 62.136719 31.714844 C 62.0625 31.65625 61.988281 31.585938 61.921875 31.519531 C 61.855469 31.453125 61.785156 31.378906 61.726562 31.304688 C 61.664062 31.230469 61.609375 31.148438 61.550781 31.070312 C 61.496094 30.988281 61.449219 30.902344 61.402344 30.816406 C 61.359375 30.730469 61.316406 30.644531 61.28125 30.550781 C 61.242188 30.457031 61.214844 30.367188 61.1875 30.273438 C 61.164062 30.179688 61.140625 30.082031 61.121094 29.988281 C 61.101562 29.890625 61.089844 29.800781 61.082031 29.699219 C 61.078125 29.601562 61.070312 29.503906 61.078125 29.410156 L 61.078125 23.027344 L 54.714844 23.027344 C 54.558594 23.027344 54.40625 23.015625 54.253906 22.992188 C 54.097656 22.96875 53.949219 22.929688 53.800781 22.878906 C 53.652344 22.832031 53.511719 22.777344 53.375 22.703125 C 53.242188 22.632812 53.105469 22.546875 52.980469 22.460938 C 52.859375 22.367188 52.742188 22.269531 52.628906 22.160156 C 52.519531 22.046875 52.421875 21.929688 52.328125 21.808594 C 52.234375 21.683594 52.15625 21.550781 52.085938 21.414062 C 52.019531 21.277344 51.957031 21.128906 51.910156 20.988281 C 51.859375 20.839844 51.828125 20.691406 51.804688 20.539062 C 51.78125 20.382812 51.765625 20.230469 51.765625 20.074219 C 51.765625 19.921875 51.78125 19.765625 51.804688 19.613281 C 51.828125 19.457031 51.867188 19.3125 51.914062 19.164062 C 51.964844 19.015625 52.027344 18.875 52.09375 18.738281 C 52.160156 18.601562 52.25 18.464844 52.335938 18.34375 C 52.425781 18.21875 52.527344 18.101562 52.636719 17.992188 C 52.746094 17.878906 52.863281 17.78125 52.988281 17.695312 L 53.210938 17.535156 C 52.921875 17.292969 52.65625 17.035156 52.410156 16.753906 C 52.144531 16.457031 51.902344 16.140625 51.675781 15.816406 L 51.5625 15.894531 C 51.453125 15.976562 51.347656 16.0625 51.25 16.152344 C 51.144531 16.246094 51.046875 16.339844 50.953125 16.4375 C 50.859375 16.535156 50.769531 16.636719 50.683594 16.738281 C 50.59375 16.84375 50.507812 16.949219 50.433594 17.066406 C 50.355469 17.175781 50.28125 17.292969 50.214844 17.410156 C 50.144531 17.527344 50.078125 17.644531 50.015625 17.769531 C 49.953125 17.894531 49.898438 18.015625 49.851562 18.140625 C 49.800781 18.261719 49.75 18.390625 49.714844 18.523438 C 49.671875 18.652344 49.640625 18.78125 49.609375 18.917969 C 49.578125 19.050781 49.554688 19.179688 49.535156 19.316406 C 49.515625 19.453125 49.5 19.589844 49.492188 19.722656 C 49.484375 19.867188 49.484375 20 49.484375 20.136719 C 49.484375 20.273438 49.492188 20.410156 49.503906 20.542969 C 49.515625 20.679688 49.535156 20.816406 49.554688 20.949219 C 49.578125 21.085938 49.601562 21.214844 49.632812 21.351562 C 49.664062 21.480469 49.707031 21.617188 49.746094 21.746094 C 49.789062 21.875 49.835938 22.003906 49.886719 22.128906 C 49.941406 22.25 49.996094 22.375 50.058594 22.5 C 50.121094 22.621094 50.1875 22.738281 50.261719 22.855469 C 50.335938 22.972656 50.410156 23.085938 50.492188 23.195312 C 50.570312 23.304688 50.65625 23.410156 50.742188 23.515625 C 50.828125 23.621094 50.929688 23.71875 51.019531 23.8125 C 51.121094 23.910156 51.21875 23.996094 51.324219 24.089844 C 51.429688 24.175781 51.53125 24.261719 51.644531 24.34375 C 51.753906 24.421875 51.867188 24.496094 51.984375 24.570312 C 52.101562 24.644531 52.21875 24.707031 52.339844 24.769531 C 52.464844 24.828125 52.585938 24.882812 52.710938 24.941406 C 52.832031 24.988281 52.964844 25.039062 53.09375 25.082031 C 53.222656 25.125 53.351562 25.164062 53.488281 25.191406 C 53.617188 25.222656 53.753906 25.25 53.886719 25.273438 C 54.023438 25.292969 54.160156 25.308594 54.296875 25.324219 C 54.429688 25.335938 54.566406 25.339844 54.703125 25.339844 L 58.789062 25.339844 L 58.789062 29.421875 C 58.789062 29.507812 58.789062 29.59375 58.789062 29.683594 C 58.789062 29.769531 58.796875 29.855469 58.800781 29.941406 C 58.808594 30.027344 58.820312 30.113281 58.832031 30.199219 C 58.84375 30.285156 58.859375 30.371094 58.875 30.457031 C 58.894531 30.542969 58.90625 30.632812 58.933594 30.710938 C 58.949219 30.796875 58.976562 30.878906 59 30.964844 C 59.023438 31.042969 59.050781 31.128906 59.078125 31.210938 C 59.109375 31.289062 59.136719 31.371094 59.171875 31.453125 C 59.203125 31.53125 59.238281 31.613281 59.277344 31.691406 C 59.3125 31.773438 59.351562 31.847656 59.386719 31.925781 C 59.429688 32 59.46875 32.082031 59.511719 32.152344 C 59.554688 32.226562 59.597656 32.300781 59.648438 32.375 C 59.695312 32.449219 59.746094 32.519531 59.796875 32.59375 C 59.84375 32.660156 59.898438 32.726562 59.957031 32.796875 C 60.011719 32.863281 60.066406 32.929688 60.121094 32.992188 C 60.175781 33.054688 60.238281 33.121094 60.300781 33.183594 C 60.363281 33.246094 60.425781 33.308594 60.484375 33.363281 C 60.546875 33.417969 60.613281 33.480469 60.683594 33.535156 C 60.75 33.589844 60.820312 33.644531 60.886719 33.695312 C 60.953125 33.746094 61.027344 33.800781 61.097656 33.84375 C 61.171875 33.894531 61.238281 33.9375 61.3125 33.984375 C 61.386719 34.027344 61.460938 34.070312 61.539062 34.113281 C 61.613281 34.15625 61.695312 34.195312 61.773438 34.230469 C 61.855469 34.269531 61.929688 34.304688 62.007812 34.335938 C 62.089844 34.367188 62.167969 34.40625 62.25 34.429688 C 62.328125 34.460938 62.414062 34.484375 62.496094 34.507812 C 62.574219 34.535156 62.660156 34.558594 62.75 34.578125 C 62.835938 34.597656 62.914062 34.621094 63 34.632812 C 63.085938 34.644531 63.175781 34.664062 63.253906 34.675781 C 63.339844 34.6875 63.425781 34.699219 63.511719 34.707031 C 63.597656 34.714844 63.6875 34.71875 63.773438 34.726562 C 63.859375 34.730469 63.945312 34.730469 64.03125 34.730469 C 64.117188 34.730469 64.203125 34.730469 64.289062 34.726562 C 64.375 34.71875 64.460938 34.714844 64.546875 34.707031 C 64.636719 34.699219 64.722656 34.6875 64.808594 34.675781 C 64.894531 34.664062 64.980469 34.652344 65.0625 34.632812 C 65.140625 34.613281 65.226562 34.597656 65.3125 34.578125 C 65.398438 34.558594 65.480469 34.535156 65.566406 34.507812 C 65.644531 34.484375 65.734375 34.453125 65.8125 34.429688 C 65.894531 34.398438 65.972656 34.367188 66.054688 34.335938 C 66.132812 34.304688 66.214844 34.269531 66.289062 34.230469 C 66.367188 34.195312 66.441406 34.15625 66.523438 34.113281 C 66.597656 34.070312 66.675781 34.027344 66.75 33.984375 C 66.824219 33.941406 66.898438 33.894531 66.964844 33.84375 C 67.039062 33.792969 67.109375 33.746094 67.175781 33.695312 C 67.242188 33.644531 67.3125 33.589844 67.378906 33.535156 C 67.445312 33.480469 67.507812 33.425781 67.578125 33.363281 C 67.636719 33.308594 67.699219 33.246094 67.761719 33.183594 C 67.824219 33.121094 67.878906 33.058594 67.941406 32.992188 C 67.996094 32.929688 68.050781 32.863281 68.105469 32.796875 C 68.160156 32.726562 68.210938 32.660156 68.265625 32.59375 C 68.316406 32.523438 68.367188 32.449219 68.414062 32.375 C 68.464844 32.300781 68.507812 32.226562 68.550781 32.152344 C 68.59375 32.082031 68.636719 32.007812 68.671875 31.925781 C 68.710938 31.851562 68.753906 31.773438 68.785156 31.691406 C 68.820312 31.613281 68.851562 31.53125 68.890625 31.453125 C 68.921875 31.371094 68.953125 31.289062 68.980469 31.210938 C 69.011719 31.128906 69.039062 31.042969 69.0625 30.964844 C 69.085938 30.882812 69.113281 30.796875 69.128906 30.710938 C 69.148438 30.625 69.167969 30.542969 69.183594 30.457031 C 69.203125 30.371094 69.214844 30.285156 69.230469 30.199219 C 69.242188 30.113281 69.246094 30.027344 69.257812 29.941406 C 69.265625 29.855469 69.273438 29.769531 69.273438 29.683594 C 69.273438 29.59375 69.277344 29.507812 69.273438 29.421875 L 69.273438 28.953125 C 68.871094 28.644531 68.488281 28.332031 68.144531 27.980469 Z M 68.144531 27.980469 " fill-opacity="1" fill-rule="nonzero"/></g><g clip-path="url(#c0e6ab3f93)"><path fill="#1695b1" d="M 59.296875 15.859375 C 59.121094 16.265625 58.882812 16.628906 58.574219 16.941406 L 58.648438 17.117188 L 58.648438 17.132812 L 61.089844 17.132812 L 61.089844 10.765625 C 61.089844 10.671875 61.097656 10.574219 61.109375 10.480469 C 61.121094 10.390625 61.132812 10.289062 61.15625 10.199219 C 61.175781 10.105469 61.199219 10.011719 61.230469 9.921875 C 61.261719 9.828125 61.292969 9.742188 61.332031 9.65625 C 61.367188 9.570312 61.410156 9.484375 61.453125 9.394531 C 61.496094 9.308594 61.550781 9.230469 61.601562 9.15625 C 61.65625 9.074219 61.710938 9 61.773438 8.925781 C 61.835938 8.855469 61.898438 8.785156 61.964844 8.71875 C 62.03125 8.648438 62.105469 8.589844 62.179688 8.527344 C 62.253906 8.464844 62.328125 8.410156 62.410156 8.359375 C 62.488281 8.3125 62.570312 8.261719 62.65625 8.21875 C 62.742188 8.175781 62.828125 8.132812 62.914062 8.09375 C 63 8.058594 63.09375 8.027344 63.1875 8.003906 C 63.277344 7.976562 63.371094 7.953125 63.464844 7.933594 C 63.554688 7.917969 63.648438 7.902344 63.746094 7.890625 C 63.839844 7.878906 63.9375 7.878906 64.03125 7.878906 C 64.125 7.878906 64.222656 7.886719 64.316406 7.890625 C 64.40625 7.898438 64.503906 7.917969 64.597656 7.933594 C 64.691406 7.953125 64.78125 7.976562 64.875 8.003906 C 64.96875 8.027344 65.054688 8.066406 65.148438 8.09375 C 65.234375 8.132812 65.320312 8.167969 65.40625 8.21875 C 65.492188 8.261719 65.574219 8.3125 65.652344 8.359375 C 65.734375 8.410156 65.804688 8.472656 65.878906 8.527344 C 65.953125 8.589844 66.027344 8.648438 66.097656 8.71875 C 66.164062 8.785156 66.230469 8.855469 66.289062 8.925781 C 66.347656 9 66.40625 9.074219 66.460938 9.15625 C 66.515625 9.234375 66.566406 9.316406 66.609375 9.394531 C 66.652344 9.476562 66.695312 9.5625 66.730469 9.65625 C 66.769531 9.742188 66.804688 9.835938 66.832031 9.921875 C 66.859375 10.011719 66.886719 10.105469 66.902344 10.199219 C 66.921875 10.289062 66.941406 10.382812 66.953125 10.480469 C 66.964844 10.574219 66.972656 10.671875 66.972656 10.765625 L 66.972656 17.140625 L 68.070312 17.140625 C 68.25 17.054688 68.4375 16.988281 68.628906 16.941406 C 68.828125 16.898438 69.023438 16.875 69.222656 16.875 C 69.417969 16.875 69.617188 16.898438 69.8125 16.941406 C 70.011719 16.988281 70.195312 17.054688 70.375 17.140625 L 73.339844 17.140625 C 73.441406 17.140625 73.53125 17.148438 73.632812 17.152344 C 73.730469 17.164062 73.820312 17.175781 73.914062 17.195312 C 74.007812 17.214844 74.097656 17.238281 74.191406 17.265625 C 74.285156 17.292969 74.378906 17.324219 74.464844 17.363281 C 74.550781 17.398438 74.640625 17.441406 74.722656 17.484375 C 74.808594 17.527344 74.890625 17.578125 74.96875 17.632812 C 75.050781 17.6875 75.128906 17.746094 75.203125 17.804688 C 75.277344 17.867188 75.351562 17.929688 75.417969 17.996094 C 75.488281 18.066406 75.554688 18.140625 75.609375 18.214844 C 75.671875 18.289062 75.726562 18.367188 75.78125 18.449219 C 75.839844 18.527344 75.886719 18.609375 75.929688 18.695312 C 75.972656 18.78125 76.015625 18.867188 76.054688 18.953125 C 76.089844 19.039062 76.121094 19.132812 76.152344 19.222656 C 76.183594 19.316406 76.203125 19.410156 76.21875 19.503906 C 76.238281 19.59375 76.25 19.691406 76.265625 19.785156 C 76.277344 19.882812 76.277344 19.976562 76.277344 20.074219 C 76.277344 20.253906 76.257812 20.433594 76.226562 20.605469 C 77.058594 20.773438 77.757812 21.097656 78.164062 21.828125 C 78.1875 21.863281 78.199219 21.90625 78.222656 21.949219 L 78.304688 21.714844 C 78.335938 21.617188 78.367188 21.519531 78.390625 21.417969 C 78.414062 21.320312 78.441406 21.222656 78.457031 21.117188 C 78.476562 21.019531 78.496094 20.914062 78.515625 20.816406 C 78.53125 20.714844 78.539062 20.613281 78.550781 20.507812 C 78.558594 20.402344 78.5625 20.304688 78.570312 20.199219 C 78.570312 20.09375 78.570312 19.996094 78.570312 19.890625 C 78.5625 19.785156 78.558594 19.6875 78.550781 19.582031 C 78.546875 19.476562 78.527344 19.378906 78.515625 19.273438 C 78.496094 19.167969 78.476562 19.070312 78.457031 18.972656 C 78.433594 18.875 78.410156 18.769531 78.386719 18.667969 C 78.359375 18.570312 78.328125 18.472656 78.292969 18.375 C 78.261719 18.273438 78.222656 18.183594 78.179688 18.082031 C 78.144531 17.992188 78.101562 17.894531 78.058594 17.800781 C 78.015625 17.707031 77.964844 17.617188 77.917969 17.527344 C 77.867188 17.441406 77.8125 17.351562 77.757812 17.265625 C 77.699219 17.175781 77.644531 17.089844 77.582031 17.011719 C 77.523438 16.925781 77.460938 16.84375 77.390625 16.765625 C 77.324219 16.683594 77.257812 16.605469 77.1875 16.53125 C 77.121094 16.457031 77.046875 16.382812 76.972656 16.308594 C 76.898438 16.234375 76.824219 16.167969 76.746094 16.097656 C 76.664062 16.03125 76.585938 15.96875 76.503906 15.90625 C 76.425781 15.847656 76.335938 15.785156 76.25 15.730469 C 76.164062 15.671875 76.078125 15.617188 75.992188 15.5625 C 75.90625 15.511719 75.8125 15.457031 75.722656 15.414062 C 75.628906 15.363281 75.535156 15.320312 75.445312 15.277344 C 75.351562 15.234375 75.253906 15.199219 75.152344 15.160156 C 75.054688 15.125 74.960938 15.09375 74.863281 15.0625 C 74.765625 15.03125 74.667969 15.007812 74.566406 14.984375 C 74.46875 14.957031 74.363281 14.9375 74.265625 14.921875 C 74.167969 14.902344 74.0625 14.890625 73.957031 14.878906 C 73.851562 14.867188 73.753906 14.859375 73.648438 14.851562 C 73.542969 14.847656 73.445312 14.839844 73.339844 14.847656 L 69.257812 14.847656 L 69.257812 10.765625 C 69.257812 10.59375 69.246094 10.425781 69.230469 10.257812 C 69.210938 10.09375 69.179688 9.925781 69.148438 9.761719 C 69.113281 9.59375 69.066406 9.433594 69.019531 9.265625 C 68.96875 9.105469 68.90625 8.945312 68.839844 8.792969 C 68.773438 8.636719 68.699219 8.484375 68.617188 8.335938 C 68.539062 8.1875 68.445312 8.039062 68.351562 7.902344 C 68.253906 7.761719 68.15625 7.625 68.042969 7.496094 C 67.933594 7.367188 67.824219 7.246094 67.699219 7.121094 C 67.578125 7.003906 67.453125 6.886719 67.316406 6.78125 C 67.1875 6.675781 67.046875 6.574219 66.902344 6.480469 C 66.761719 6.386719 66.613281 6.300781 66.464844 6.222656 C 66.320312 6.140625 66.164062 6.074219 66.003906 6.003906 C 65.851562 5.945312 65.691406 5.882812 65.523438 5.839844 C 65.363281 5.789062 65.195312 5.746094 65.03125 5.714844 C 64.863281 5.683594 64.695312 5.660156 64.523438 5.640625 C 64.375 5.617188 64.210938 5.609375 64.035156 5.609375 C 63.863281 5.609375 63.699219 5.617188 63.53125 5.636719 C 63.363281 5.652344 63.191406 5.679688 63.027344 5.710938 C 62.859375 5.738281 62.691406 5.78125 62.53125 5.832031 C 62.371094 5.882812 62.210938 5.9375 62.050781 6 C 61.898438 6.0625 61.742188 6.132812 61.589844 6.214844 C 61.441406 6.296875 61.292969 6.382812 61.152344 6.472656 C 61.007812 6.566406 60.875 6.664062 60.738281 6.777344 C 60.609375 6.878906 60.480469 6.996094 60.355469 7.113281 C 60.234375 7.230469 60.121094 7.363281 60.011719 7.492188 C 59.898438 7.621094 59.800781 7.757812 59.703125 7.898438 C 59.605469 8.039062 59.515625 8.183594 59.4375 8.328125 C 59.355469 8.476562 59.285156 8.632812 59.214844 8.785156 C 59.148438 8.941406 59.09375 9.101562 59.035156 9.261719 C 58.988281 9.421875 58.945312 9.585938 58.90625 9.753906 C 58.871094 9.921875 58.84375 10.085938 58.828125 10.253906 C 58.808594 10.417969 58.796875 10.59375 58.796875 10.757812 L 58.796875 10.859375 C 59.417969 12.363281 59.769531 14.710938 59.296875 15.859375 Z M 59.296875 15.859375 " fill-opacity="1" fill-rule="nonzero"/></g><path fill="#7bc1b7" d="M 51.144531 13.175781 C 51.242188 13.929688 52.015625 15.277344 52.925781 16.308594 C 53.300781 16.734375 53.863281 17.277344 54.394531 17.472656 C 54.632812 17.554688 54.875 17.609375 55.128906 17.632812 C 55.378906 17.660156 55.625 17.652344 55.878906 17.617188 L 56.144531 18.21875 C 56.164062 18.261719 56.1875 18.304688 56.21875 18.34375 C 56.25 18.378906 56.28125 18.417969 56.324219 18.449219 C 56.359375 18.476562 56.402344 18.503906 56.445312 18.523438 C 56.488281 18.539062 56.539062 18.550781 56.589844 18.566406 L 56.613281 18.652344 L 56.890625 18.527344 C 56.914062 18.609375 56.945312 18.675781 56.976562 18.742188 C 57.164062 19.164062 57.410156 19.550781 57.710938 19.890625 C 57.976562 20.179688 58.273438 20.4375 58.597656 20.65625 C 58.925781 20.871094 59.277344 21.042969 59.652344 21.171875 C 60.730469 21.5625 61.636719 21.433594 62.441406 21.316406 C 63.808594 21.117188 64.714844 20.988281 65.960938 23.613281 C 66.675781 25.132812 67.625 26.507812 68.625 27.5 C 69.8125 28.675781 71.070312 29.304688 72.273438 29.335938 C 74.054688 29.375 75.617188 28.144531 76.921875 25.691406 C 77.8125 24.023438 78.027344 22.898438 77.613281 22.164062 C 77.101562 21.253906 75.839844 21.183594 74.371094 21.097656 C 73.253906 21.039062 71.992188 20.964844 70.992188 20.496094 C 71.011719 20.457031 71.027344 20.421875 71.046875 20.390625 C 71.066406 20.351562 71.078125 20.316406 71.097656 20.277344 C 71.109375 20.242188 71.128906 20.203125 71.140625 20.167969 C 71.152344 20.132812 71.164062 20.09375 71.175781 20.050781 C 71.1875 20.015625 71.195312 19.96875 71.207031 19.933594 C 71.214844 19.898438 71.21875 19.851562 71.226562 19.816406 C 71.234375 19.773438 71.238281 19.734375 71.238281 19.691406 C 71.246094 19.648438 71.246094 19.613281 71.246094 19.570312 C 71.246094 19.527344 71.246094 19.488281 71.246094 19.445312 C 71.246094 19.402344 71.238281 19.367188 71.238281 19.324219 C 71.234375 19.28125 71.226562 19.242188 71.21875 19.207031 C 71.214844 19.167969 71.207031 19.125 71.195312 19.089844 C 71.1875 19.050781 71.175781 19.007812 71.164062 18.972656 C 71.152344 18.933594 71.140625 18.898438 71.128906 18.855469 C 71.117188 18.816406 71.097656 18.78125 71.085938 18.742188 C 71.066406 18.707031 71.054688 18.667969 71.035156 18.632812 C 71.015625 18.59375 71 18.558594 70.980469 18.527344 C 70.960938 18.492188 70.9375 18.460938 70.917969 18.421875 C 70.894531 18.390625 70.875 18.355469 70.851562 18.324219 C 70.824219 18.292969 70.800781 18.261719 70.777344 18.230469 C 70.75 18.199219 70.722656 18.171875 70.695312 18.144531 C 70.664062 18.113281 70.640625 18.089844 70.609375 18.058594 C 70.578125 18.035156 70.546875 18.003906 70.515625 17.980469 C 70.488281 17.953125 70.457031 17.929688 70.417969 17.90625 C 70.386719 17.878906 70.351562 17.863281 70.320312 17.835938 C 70.28125 17.820312 70.253906 17.792969 70.214844 17.777344 C 70.179688 17.757812 70.140625 17.738281 70.105469 17.71875 C 70.066406 17.703125 70.03125 17.6875 69.992188 17.671875 C 69.957031 17.660156 69.917969 17.640625 69.882812 17.628906 C 69.84375 17.617188 69.800781 17.601562 69.765625 17.597656 C 69.726562 17.585938 69.683594 17.578125 69.648438 17.570312 C 69.609375 17.566406 69.566406 17.558594 69.53125 17.554688 C 69.492188 17.546875 69.449219 17.542969 69.40625 17.542969 C 69.363281 17.542969 69.328125 17.535156 69.285156 17.535156 C 69.242188 17.535156 69.203125 17.535156 69.160156 17.535156 C 69.117188 17.535156 69.082031 17.542969 69.039062 17.546875 C 68.996094 17.554688 68.957031 17.558594 68.921875 17.566406 C 68.882812 17.570312 68.839844 17.578125 68.804688 17.589844 C 68.765625 17.601562 68.722656 17.609375 68.6875 17.621094 C 68.648438 17.632812 68.613281 17.644531 68.570312 17.660156 C 68.53125 17.671875 68.496094 17.6875 68.457031 17.703125 C 68.421875 17.71875 68.382812 17.734375 68.347656 17.75 C 68.308594 17.769531 68.273438 17.789062 68.242188 17.8125 C 68.210938 17.835938 68.175781 17.855469 68.136719 17.878906 C 68.105469 17.90625 68.070312 17.929688 68.039062 17.953125 C 68.007812 17.980469 67.976562 18.003906 67.945312 18.027344 C 67.914062 18.054688 67.882812 18.082031 67.859375 18.109375 C 67.828125 18.140625 67.804688 18.164062 67.78125 18.195312 C 67.753906 18.226562 67.722656 18.257812 67.699219 18.289062 C 67.675781 18.316406 67.648438 18.347656 67.625 18.386719 C 67.601562 18.417969 67.582031 18.453125 67.558594 18.484375 C 67.539062 18.523438 67.515625 18.550781 67.496094 18.589844 C 67.476562 18.625 67.460938 18.664062 67.441406 18.699219 C 67.421875 18.738281 67.410156 18.773438 67.390625 18.8125 C 67.378906 18.847656 67.367188 18.886719 67.355469 18.929688 C 67.34375 18.964844 67.328125 19.003906 67.324219 19.046875 C 67.3125 19.082031 67.304688 19.125 67.296875 19.164062 C 67.292969 19.199219 67.285156 19.242188 67.28125 19.28125 C 67.273438 19.324219 67.273438 19.359375 67.269531 19.402344 C 67.269531 19.445312 67.261719 19.484375 67.261719 19.527344 C 67.261719 19.570312 67.261719 19.605469 67.269531 19.648438 C 67.269531 19.691406 67.273438 19.730469 67.28125 19.773438 C 67.285156 19.816406 67.292969 19.851562 67.296875 19.890625 C 67.304688 19.925781 67.316406 19.96875 67.324219 20.007812 C 67.328125 20.042969 67.34375 20.085938 67.355469 20.125 C 67.367188 20.160156 67.378906 20.199219 67.390625 20.242188 C 67.402344 20.277344 67.421875 20.316406 67.441406 20.351562 C 67.460938 20.390625 67.476562 20.425781 67.496094 20.464844 C 67.515625 20.5 67.53125 20.53125 67.558594 20.570312 C 67.578125 20.605469 67.601562 20.636719 67.625 20.667969 C 67.648438 20.699219 67.675781 20.734375 67.699219 20.765625 C 67.722656 20.796875 67.75 20.828125 67.78125 20.859375 C 67.804688 20.890625 67.835938 20.921875 67.867188 20.945312 C 67.898438 20.976562 67.921875 21 67.953125 21.023438 C 67.984375 21.050781 68.015625 21.074219 68.042969 21.097656 C 68.074219 21.125 68.105469 21.148438 68.144531 21.171875 C 68.175781 21.199219 68.210938 21.214844 68.25 21.242188 C 68.285156 21.257812 68.316406 21.285156 68.351562 21.300781 C 68.390625 21.320312 68.425781 21.339844 68.464844 21.351562 C 68.5 21.371094 68.539062 21.382812 68.574219 21.394531 C 68.613281 21.40625 68.648438 21.417969 68.691406 21.433594 C 68.730469 21.445312 68.773438 21.457031 68.808594 21.460938 C 68.847656 21.476562 68.890625 21.480469 68.925781 21.488281 C 68.964844 21.492188 69.007812 21.5 69.042969 21.507812 C 69.085938 21.511719 69.125 21.511719 69.167969 21.519531 C 69.210938 21.519531 69.246094 21.519531 69.289062 21.519531 C 69.332031 21.519531 69.371094 21.519531 69.414062 21.511719 C 69.457031 21.511719 69.492188 21.507812 69.535156 21.5 C 69.574219 21.492188 69.617188 21.488281 69.652344 21.480469 C 69.691406 21.476562 69.734375 21.460938 69.769531 21.457031 C 69.808594 21.445312 69.851562 21.4375 69.886719 21.425781 C 69.925781 21.414062 69.960938 21.402344 70 21.382812 C 70.035156 21.371094 70.074219 21.351562 70.109375 21.332031 C 70.148438 21.316406 70.183594 21.296875 70.222656 21.277344 C 70.257812 21.257812 70.289062 21.242188 70.324219 21.214844 C 70.363281 21.199219 70.394531 21.171875 70.425781 21.148438 C 71.632812 21.789062 73.070312 21.871094 74.347656 21.945312 C 75.511719 22.011719 76.609375 22.074219 76.894531 22.574219 C 77.066406 22.875 77.082031 23.589844 76.191406 25.28125 C 75.050781 27.429688 73.742188 28.511719 72.316406 28.472656 C 70.023438 28.425781 67.890625 25.625 66.761719 23.246094 C 65.246094 20.050781 63.773438 20.261719 62.347656 20.464844 C 61.613281 20.570312 60.855469 20.679688 59.972656 20.363281 C 58.585938 19.867188 57.96875 18.921875 57.699219 18.175781 L 57.761719 18.152344 C 57.796875 18.140625 57.828125 18.113281 57.859375 18.097656 C 57.890625 18.078125 57.921875 18.046875 57.945312 18.023438 C 57.96875 17.996094 57.996094 17.964844 58.019531 17.929688 C 58.039062 17.898438 58.054688 17.863281 58.070312 17.824219 C 58.082031 17.789062 58.09375 17.75 58.097656 17.714844 C 58.105469 17.675781 58.113281 17.640625 58.113281 17.597656 C 58.113281 17.558594 58.105469 17.523438 58.097656 17.484375 C 58.09375 17.449219 58.082031 17.410156 58.0625 17.375 L 57.796875 16.769531 C 57.996094 16.609375 58.167969 16.429688 58.320312 16.234375 C 58.476562 16.035156 58.605469 15.816406 58.703125 15.585938 C 59.210938 14.367188 58.554688 11.246094 57.761719 10.285156 C 57.398438 9.851562 56.847656 9.605469 56.15625 9.5625 C 56.113281 9.484375 56.058594 9.410156 55.992188 9.339844 C 55.921875 9.273438 55.855469 9.21875 55.773438 9.167969 C 55.695312 9.117188 55.609375 9.082031 55.515625 9.058594 C 55.421875 9.03125 55.332031 9.019531 55.238281 9.019531 C 55.195312 9.019531 55.152344 9.019531 55.109375 9.027344 C 55.066406 9.03125 55.023438 9.039062 54.984375 9.050781 C 54.941406 9.0625 54.90625 9.074219 54.863281 9.089844 C 54.824219 9.101562 54.78125 9.117188 54.746094 9.144531 C 54.707031 9.160156 54.671875 9.1875 54.632812 9.210938 C 54.597656 9.234375 54.566406 9.261719 54.535156 9.292969 C 54.503906 9.324219 54.472656 9.351562 54.449219 9.382812 C 54.425781 9.414062 54.394531 9.453125 54.375 9.488281 C 54.351562 9.527344 54.332031 9.5625 54.3125 9.601562 C 54.296875 9.636719 54.277344 9.679688 54.265625 9.71875 C 54.253906 9.761719 54.238281 9.796875 54.226562 9.839844 C 54.222656 9.882812 54.214844 9.925781 54.207031 9.96875 C 54.203125 10.011719 54.203125 10.054688 54.207031 10.097656 C 54.207031 10.140625 54.214844 10.183594 54.222656 10.230469 C 54.226562 10.273438 54.238281 10.316406 54.253906 10.351562 C 54.265625 10.394531 54.277344 10.433594 54.296875 10.46875 C 54.339844 10.5625 54.386719 10.648438 54.457031 10.726562 C 54.523438 10.808594 54.597656 10.871094 54.683594 10.925781 C 54.769531 10.980469 54.863281 11.023438 54.960938 11.046875 C 55.058594 11.074219 55.160156 11.09375 55.261719 11.085938 C 55.367188 11.085938 55.464844 11.066406 55.566406 11.035156 C 55.664062 11.003906 55.757812 10.957031 55.835938 10.902344 C 55.921875 10.839844 55.996094 10.769531 56.058594 10.691406 C 56.121094 10.609375 56.167969 10.519531 56.207031 10.425781 C 56.59375 10.464844 56.886719 10.59375 57.074219 10.808594 L 57.09375 10.832031 C 57.378906 11.171875 57.6875 12.046875 57.871094 13.003906 C 58.050781 13.957031 58.070312 14.878906 57.910156 15.261719 C 57.617188 15.960938 56.824219 16.429688 56.578125 16.566406 C 56.304688 16.660156 55.421875 16.925781 54.714844 16.660156 C 54.324219 16.519531 53.671875 15.890625 53.085938 15.09375 C 52.5 14.296875 52.074219 13.492188 52.019531 13.046875 C 51.984375 12.75 52.082031 12.441406 52.328125 12.117188 C 52.367188 12.132812 52.410156 12.144531 52.453125 12.152344 C 52.496094 12.164062 52.53125 12.171875 52.574219 12.175781 C 52.617188 12.183594 52.660156 12.183594 52.703125 12.1875 C 52.746094 12.1875 52.789062 12.1875 52.832031 12.183594 C 52.878906 12.175781 52.921875 12.171875 52.957031 12.160156 C 53 12.144531 53.039062 12.132812 53.082031 12.121094 C 53.117188 12.109375 53.160156 12.089844 53.199219 12.070312 C 53.234375 12.054688 53.273438 12.027344 53.308594 12.003906 C 53.34375 11.980469 53.375 11.957031 53.40625 11.925781 C 53.4375 11.894531 53.46875 11.867188 53.5 11.832031 C 53.53125 11.800781 53.554688 11.765625 53.578125 11.734375 C 53.605469 11.695312 53.625 11.660156 53.648438 11.621094 C 53.667969 11.585938 53.683594 11.546875 53.695312 11.503906 C 53.710938 11.46875 53.722656 11.425781 53.734375 11.382812 C 53.746094 11.339844 53.753906 11.300781 53.753906 11.257812 C 53.757812 11.214844 53.757812 11.171875 53.757812 11.128906 C 53.757812 11.085938 53.753906 11.042969 53.746094 11 C 53.738281 10.957031 53.734375 10.914062 53.722656 10.875 C 53.710938 10.832031 53.695312 10.796875 53.679688 10.753906 C 53.660156 10.714844 53.640625 10.671875 53.625 10.636719 C 53.605469 10.597656 53.578125 10.5625 53.554688 10.53125 C 53.53125 10.492188 53.507812 10.464844 53.476562 10.433594 C 53.445312 10.402344 53.414062 10.371094 53.382812 10.347656 C 53.351562 10.320312 53.316406 10.296875 53.277344 10.273438 C 53.242188 10.246094 53.203125 10.230469 53.167969 10.210938 C 53.128906 10.191406 53.085938 10.171875 53.050781 10.160156 C 53.007812 10.148438 52.96875 10.136719 52.925781 10.128906 C 52.882812 10.125 52.839844 10.117188 52.804688 10.113281 C 52.761719 10.105469 52.714844 10.105469 52.671875 10.113281 C 52.628906 10.113281 52.585938 10.117188 52.542969 10.125 C 52.5 10.128906 52.457031 10.140625 52.421875 10.15625 C 52.378906 10.167969 52.339844 10.179688 52.304688 10.199219 C 52.242188 10.222656 52.1875 10.253906 52.132812 10.289062 C 52.074219 10.328125 52.027344 10.371094 51.984375 10.414062 C 51.933594 10.464844 51.898438 10.511719 51.859375 10.5625 C 51.824219 10.609375 51.792969 10.671875 51.765625 10.734375 C 51.742188 10.796875 51.71875 10.859375 51.707031 10.917969 C 51.691406 10.980469 51.679688 11.046875 51.679688 11.109375 C 51.679688 11.179688 51.679688 11.238281 51.691406 11.308594 C 51.707031 11.371094 51.71875 11.4375 51.742188 11.5 C 51.261719 12.046875 51.070312 12.621094 51.144531 13.175781 Z M 51.144531 13.175781 " fill-opacity="1" fill-rule="nonzero"/><g transform="matrix(1, 0, 0, 1, 71, 6)"><g clip-path="url(#0713fbeb30)"><g fill="#0b8fac" fill-opacity="1"><g transform="translate(0.906445, 8.26919)"><g><path d="M 6.375 0 L 6.359375 -4.015625 L 4.375 -0.6875 L 3.875 -0.6875 L 1.890625 -3.953125 L 1.890625 0 L 0.8125 0 L 0.8125 -6.046875 L 1.734375 -6.046875 L 4.140625 -2.046875 L 6.5 -6.046875 L 7.421875 -6.046875 L 7.4375 0 Z M 6.375 0 "/></g></g></g><g fill="#0b8fac" fill-opacity="1"><g transform="translate(9.152817, 8.26919)"><g><path d="M 5.34375 -0.9375 L 5.34375 0 L 0.8125 0 L 0.8125 -6.046875 L 5.234375 -6.046875 L 5.234375 -5.109375 L 1.9375 -5.109375 L 1.9375 -3.53125 L 4.859375 -3.53125 L 4.859375 -2.609375 L 1.9375 -2.609375 L 1.9375 -0.9375 Z M 5.34375 -0.9375 "/></g></g></g><g fill="#0b8fac" fill-opacity="1"><g transform="translate(14.938227, 8.26919)"><g><path d="M 0.8125 -6.046875 L 3.453125 -6.046875 C 4.097656 -6.046875 4.671875 -5.921875 5.171875 -5.671875 C 5.671875 -5.421875 6.054688 -5.066406 6.328125 -4.609375 C 6.609375 -4.148438 6.75 -3.625 6.75 -3.03125 C 6.75 -2.425781 6.609375 -1.894531 6.328125 -1.4375 C 6.054688 -0.976562 5.671875 -0.625 5.171875 -0.375 C 4.671875 -0.125 4.097656 0 3.453125 0 L 0.8125 0 Z M 3.40625 -0.953125 C 3.84375 -0.953125 4.226562 -1.035156 4.5625 -1.203125 C 4.90625 -1.367188 5.164062 -1.609375 5.34375 -1.921875 C 5.53125 -2.242188 5.625 -2.613281 5.625 -3.03125 C 5.625 -3.4375 5.53125 -3.796875 5.34375 -4.109375 C 5.164062 -4.429688 4.90625 -4.675781 4.5625 -4.84375 C 4.226562 -5.007812 3.84375 -5.09375 3.40625 -5.09375 L 1.9375 -5.09375 L 1.9375 -0.953125 Z M 3.40625 -0.953125 "/></g></g></g><g fill="#0b8fac" fill-opacity="1"><g transform="translate(22.070685, 8.26919)"><g><path d="M 0.8125 -6.046875 L 1.9375 -6.046875 L 1.9375 0 L 0.8125 0 Z M 0.8125 -6.046875 "/></g></g></g><g fill="#0b8fac" fill-opacity="1"><g transform="translate(24.825236, 8.26919)"><g><path d="M 3.609375 0.09375 C 3.003906 0.09375 2.453125 -0.0390625 1.953125 -0.3125 C 1.460938 -0.582031 1.078125 -0.953125 0.796875 -1.421875 C 0.515625 -1.898438 0.375 -2.4375 0.375 -3.03125 C 0.375 -3.625 0.515625 -4.15625 0.796875 -4.625 C 1.085938 -5.09375 1.476562 -5.460938 1.96875 -5.734375 C 2.457031 -6.003906 3.007812 -6.140625 3.625 -6.140625 C 4.113281 -6.140625 4.5625 -6.050781 4.96875 -5.875 C 5.382812 -5.695312 5.734375 -5.445312 6.015625 -5.125 L 5.28125 -4.4375 C 4.84375 -4.914062 4.304688 -5.15625 3.671875 -5.15625 C 3.253906 -5.15625 2.878906 -5.0625 2.546875 -4.875 C 2.222656 -4.695312 1.96875 -4.445312 1.78125 -4.125 C 1.601562 -3.800781 1.515625 -3.4375 1.515625 -3.03125 C 1.515625 -2.613281 1.601562 -2.242188 1.78125 -1.921875 C 1.96875 -1.597656 2.222656 -1.347656 2.546875 -1.171875 C 2.878906 -0.992188 3.253906 -0.90625 3.671875 -0.90625 C 4.304688 -0.90625 4.84375 -1.140625 5.28125 -1.609375 L 6.015625 -0.921875 C 5.734375 -0.597656 5.382812 -0.347656 4.96875 -0.171875 C 4.5625 0.00390625 4.109375 0.09375 3.609375 0.09375 Z M 3.609375 0.09375 "/></g></g></g><g fill="#0b8fac" fill-opacity="1"><g transform="translate(31.102838, 8.26919)"><g><path d="M 3.640625 0.09375 C 3.023438 0.09375 2.46875 -0.0390625 1.96875 -0.3125 C 1.476562 -0.582031 1.085938 -0.953125 0.796875 -1.421875 C 0.515625 -1.898438 0.375 -2.4375 0.375 -3.03125 C 0.375 -3.613281 0.515625 -4.140625 0.796875 -4.609375 C 1.085938 -5.085938 1.476562 -5.460938 1.96875 -5.734375 C 2.46875 -6.003906 3.023438 -6.140625 3.640625 -6.140625 C 4.253906 -6.140625 4.804688 -6.003906 5.296875 -5.734375 C 5.796875 -5.460938 6.1875 -5.09375 6.46875 -4.625 C 6.75 -4.15625 6.890625 -3.625 6.890625 -3.03125 C 6.890625 -2.4375 6.75 -1.898438 6.46875 -1.421875 C 6.1875 -0.953125 5.796875 -0.582031 5.296875 -0.3125 C 4.804688 -0.0390625 4.253906 0.09375 3.640625 0.09375 Z M 3.640625 -0.90625 C 4.046875 -0.90625 4.40625 -0.992188 4.71875 -1.171875 C 5.039062 -1.347656 5.296875 -1.597656 5.484375 -1.921875 C 5.671875 -2.253906 5.765625 -2.625 5.765625 -3.03125 C 5.765625 -3.425781 5.671875 -3.785156 5.484375 -4.109375 C 5.296875 -4.441406 5.039062 -4.695312 4.71875 -4.875 C 4.40625 -5.0625 4.046875 -5.15625 3.640625 -5.15625 C 3.234375 -5.15625 2.867188 -5.0625 2.546875 -4.875 C 2.222656 -4.695312 1.96875 -4.441406 1.78125 -4.109375 C 1.601562 -3.785156 1.515625 -3.425781 1.515625 -3.03125 C 1.515625 -2.625 1.601562 -2.253906 1.78125 -1.921875 C 1.96875 -1.597656 2.222656 -1.347656 2.546875 -1.171875 C 2.867188 -0.992188 3.234375 -0.90625 3.640625 -0.90625 Z M 3.640625 -0.90625 "/></g></g></g><g fill="#0b8fac" fill-opacity="1"><g transform="translate(38.373456, 8.26919)"><g><path d="M 6.1875 -6.046875 L 6.1875 0 L 5.265625 0 L 1.921875 -4.09375 L 1.921875 0 L 0.8125 0 L 0.8125 -6.046875 L 1.734375 -6.046875 L 5.078125 -1.953125 L 5.078125 -6.046875 Z M 6.1875 -6.046875 "/></g></g></g><g fill="#0b8fac" fill-opacity="1"><g transform="translate(45.367755, 8.26919)"><g><path d="M 6.1875 -6.046875 L 6.1875 0 L 5.265625 0 L 1.921875 -4.09375 L 1.921875 0 L 0.8125 0 L 0.8125 -6.046875 L 1.734375 -6.046875 L 5.078125 -1.953125 L 5.078125 -6.046875 Z M 6.1875 -6.046875 "/></g></g></g><g fill="#0b8fac" fill-opacity="1"><g transform="translate(52.362054, 8.26919)"><g><path d="M 5.34375 -0.9375 L 5.34375 0 L 0.8125 0 L 0.8125 -6.046875 L 5.234375 -6.046875 L 5.234375 -5.109375 L 1.9375 -5.109375 L 1.9375 -3.53125 L 4.859375 -3.53125 L 4.859375 -2.609375 L 1.9375 -2.609375 L 1.9375 -0.9375 Z M 5.34375 -0.9375 "/></g></g></g><g fill="#0b8fac" fill-opacity="1"><g transform="translate(58.147464, 8.26919)"><g><path d="M 3.609375 0.09375 C 3.003906 0.09375 2.453125 -0.0390625 1.953125 -0.3125 C 1.460938 -0.582031 1.078125 -0.953125 0.796875 -1.421875 C 0.515625 -1.898438 0.375 -2.4375 0.375 -3.03125 C 0.375 -3.625 0.515625 -4.15625 0.796875 -4.625 C 1.085938 -5.09375 1.476562 -5.460938 1.96875 -5.734375 C 2.457031 -6.003906 3.007812 -6.140625 3.625 -6.140625 C 4.113281 -6.140625 4.5625 -6.050781 4.96875 -5.875 C 5.382812 -5.695312 5.734375 -5.445312 6.015625 -5.125 L 5.28125 -4.4375 C 4.84375 -4.914062 4.304688 -5.15625 3.671875 -5.15625 C 3.253906 -5.15625 2.878906 -5.0625 2.546875 -4.875 C 2.222656 -4.695312 1.96875 -4.445312 1.78125 -4.125 C 1.601562 -3.800781 1.515625 -3.4375 1.515625 -3.03125 C 1.515625 -2.613281 1.601562 -2.242188 1.78125 -1.921875 C 1.96875 -1.597656 2.222656 -1.347656 2.546875 -1.171875 C 2.878906 -0.992188 3.253906 -0.90625 3.671875 -0.90625 C 4.304688 -0.90625 4.84375 -1.140625 5.28125 -1.609375 L 6.015625 -0.921875 C 5.734375 -0.597656 5.382812 -0.347656 4.96875 -0.171875 C 4.5625 0.00390625 4.109375 0.09375 3.609375 0.09375 Z M 3.609375 0.09375 "/></g></g></g><g fill="#0b8fac" fill-opacity="1"><g transform="translate(64.425066, 8.26919)"><g><path d="M 2.046875 -5.09375 L 0.03125 -5.09375 L 0.03125 -6.046875 L 5.171875 -6.046875 L 5.171875 -5.09375 L 3.15625 -5.09375 L 3.15625 0 L 2.046875 0 Z M 2.046875 -5.09375 "/></g></g></g></g></g><g transform="matrix(1, 0, 0, 1, 91, 17)"><g clip-path="url(#9efd643c5a)"><g fill="#06333d" fill-opacity="1"><g transform="translate(1.089085, 7.33186)"><g><path d="M 6.5 -5.40625 L 6.5 0 L 5.953125 0 L 5.953125 -4.328125 L 3.828125 -0.6875 L 3.5625 -0.6875 L 1.4375 -4.3125 L 1.4375 0 L 0.875 0 L 0.875 -5.40625 L 1.359375 -5.40625 L 3.703125 -1.40625 L 6.03125 -5.40625 Z M 6.5 -5.40625 "/></g></g></g><g fill="#06333d" fill-opacity="1"><g transform="translate(8.469359, 7.33186)"><g><path d="M 4.3125 -1.859375 L 0.90625 -1.859375 C 0.9375 -1.441406 1.097656 -1.101562 1.390625 -0.84375 C 1.679688 -0.582031 2.050781 -0.453125 2.5 -0.453125 C 2.757812 -0.453125 2.992188 -0.492188 3.203125 -0.578125 C 3.410156 -0.671875 3.59375 -0.804688 3.75 -0.984375 L 4.0625 -0.625 C 3.882812 -0.40625 3.660156 -0.238281 3.390625 -0.125 C 3.117188 -0.0195312 2.816406 0.03125 2.484375 0.03125 C 2.066406 0.03125 1.695312 -0.0546875 1.375 -0.234375 C 1.050781 -0.410156 0.800781 -0.65625 0.625 -0.96875 C 0.445312 -1.28125 0.359375 -1.632812 0.359375 -2.03125 C 0.359375 -2.425781 0.441406 -2.78125 0.609375 -3.09375 C 0.785156 -3.414062 1.023438 -3.660156 1.328125 -3.828125 C 1.628906 -4.003906 1.96875 -4.09375 2.34375 -4.09375 C 2.71875 -4.09375 3.054688 -4.003906 3.359375 -3.828125 C 3.660156 -3.660156 3.894531 -3.421875 4.0625 -3.109375 C 4.226562 -2.796875 4.3125 -2.4375 4.3125 -2.03125 Z M 2.34375 -3.625 C 1.945312 -3.625 1.613281 -3.5 1.34375 -3.25 C 1.082031 -3 0.9375 -2.675781 0.90625 -2.28125 L 3.796875 -2.28125 C 3.753906 -2.675781 3.597656 -3 3.328125 -3.25 C 3.066406 -3.5 2.738281 -3.625 2.34375 -3.625 Z M 2.34375 -3.625 "/></g></g></g><g fill="#06333d" fill-opacity="1"><g transform="translate(13.137089, 7.33186)"><g><path d="M 4.484375 -5.734375 L 4.484375 0 L 3.953125 0 L 3.953125 -0.796875 C 3.785156 -0.523438 3.566406 -0.316406 3.296875 -0.171875 C 3.023438 -0.0351562 2.71875 0.03125 2.375 0.03125 C 2 0.03125 1.65625 -0.0507812 1.34375 -0.21875 C 1.03125 -0.394531 0.785156 -0.640625 0.609375 -0.953125 C 0.441406 -1.273438 0.359375 -1.632812 0.359375 -2.03125 C 0.359375 -2.4375 0.441406 -2.796875 0.609375 -3.109375 C 0.785156 -3.421875 1.03125 -3.660156 1.34375 -3.828125 C 1.65625 -4.003906 2 -4.09375 2.375 -4.09375 C 2.707031 -4.09375 3.003906 -4.023438 3.265625 -3.890625 C 3.535156 -3.753906 3.753906 -3.554688 3.921875 -3.296875 L 3.921875 -5.734375 Z M 2.421875 -0.453125 C 2.710938 -0.453125 2.972656 -0.515625 3.203125 -0.640625 C 3.429688 -0.773438 3.609375 -0.960938 3.734375 -1.203125 C 3.867188 -1.441406 3.9375 -1.71875 3.9375 -2.03125 C 3.9375 -2.34375 3.867188 -2.617188 3.734375 -2.859375 C 3.609375 -3.097656 3.429688 -3.285156 3.203125 -3.421875 C 2.972656 -3.554688 2.710938 -3.625 2.421875 -3.625 C 2.140625 -3.625 1.882812 -3.554688 1.65625 -3.421875 C 1.425781 -3.285156 1.242188 -3.097656 1.109375 -2.859375 C 0.972656 -2.617188 0.90625 -2.34375 0.90625 -2.03125 C 0.90625 -1.71875 0.972656 -1.441406 1.109375 -1.203125 C 1.242188 -0.960938 1.425781 -0.773438 1.65625 -0.640625 C 1.882812 -0.515625 2.140625 -0.453125 2.421875 -0.453125 Z M 2.421875 -0.453125 "/></g></g></g><g fill="#06333d" fill-opacity="1"><g transform="translate(18.376699, 7.33186)"><g><path d="M 0.765625 -4.0625 L 1.3125 -4.0625 L 1.3125 0 L 0.765625 0 Z M 1.046875 -4.953125 C 0.929688 -4.953125 0.832031 -4.988281 0.75 -5.0625 C 0.675781 -5.144531 0.640625 -5.242188 0.640625 -5.359375 C 0.640625 -5.453125 0.675781 -5.535156 0.75 -5.609375 C 0.832031 -5.691406 0.929688 -5.734375 1.046875 -5.734375 C 1.148438 -5.734375 1.238281 -5.695312 1.3125 -5.625 C 1.394531 -5.550781 1.4375 -5.460938 1.4375 -5.359375 C 1.4375 -5.242188 1.394531 -5.144531 1.3125 -5.0625 C 1.238281 -4.988281 1.148438 -4.953125 1.046875 -4.953125 Z M 1.046875 -4.953125 "/></g></g></g><g fill="#06333d" fill-opacity="1"><g transform="translate(20.455543, 7.33186)"><g><path d="M 2.453125 0.03125 C 2.046875 0.03125 1.679688 -0.0507812 1.359375 -0.21875 C 1.046875 -0.394531 0.800781 -0.640625 0.625 -0.953125 C 0.445312 -1.273438 0.359375 -1.632812 0.359375 -2.03125 C 0.359375 -2.425781 0.445312 -2.78125 0.625 -3.09375 C 0.800781 -3.414062 1.046875 -3.660156 1.359375 -3.828125 C 1.679688 -4.003906 2.046875 -4.09375 2.453125 -4.09375 C 2.804688 -4.09375 3.117188 -4.023438 3.390625 -3.890625 C 3.671875 -3.753906 3.890625 -3.554688 4.046875 -3.296875 L 3.640625 -3.015625 C 3.503906 -3.210938 3.332031 -3.363281 3.125 -3.46875 C 2.914062 -3.570312 2.691406 -3.625 2.453125 -3.625 C 2.160156 -3.625 1.894531 -3.554688 1.65625 -3.421875 C 1.425781 -3.285156 1.242188 -3.097656 1.109375 -2.859375 C 0.972656 -2.617188 0.90625 -2.34375 0.90625 -2.03125 C 0.90625 -1.71875 0.972656 -1.441406 1.109375 -1.203125 C 1.242188 -0.960938 1.425781 -0.773438 1.65625 -0.640625 C 1.894531 -0.515625 2.160156 -0.453125 2.453125 -0.453125 C 2.691406 -0.453125 2.914062 -0.5 3.125 -0.59375 C 3.332031 -0.695312 3.503906 -0.847656 3.640625 -1.046875 L 4.046875 -0.765625 C 3.890625 -0.503906 3.671875 -0.304688 3.390625 -0.171875 C 3.109375 -0.0351562 2.796875 0.03125 2.453125 0.03125 Z M 2.453125 0.03125 "/></g></g></g><g fill="#06333d" fill-opacity="1"><g transform="translate(24.806423, 7.33186)"><g><path d="M 2.1875 -4.09375 C 2.71875 -4.09375 3.125 -3.957031 3.40625 -3.6875 C 3.695312 -3.425781 3.84375 -3.035156 3.84375 -2.515625 L 3.84375 0 L 3.3125 0 L 3.3125 -0.640625 C 3.1875 -0.421875 3.003906 -0.253906 2.765625 -0.140625 C 2.523438 -0.0234375 2.238281 0.03125 1.90625 0.03125 C 1.457031 0.03125 1.097656 -0.0703125 0.828125 -0.28125 C 0.554688 -0.5 0.421875 -0.785156 0.421875 -1.140625 C 0.421875 -1.484375 0.546875 -1.757812 0.796875 -1.96875 C 1.046875 -2.1875 1.445312 -2.296875 2 -2.296875 L 3.28125 -2.296875 L 3.28125 -2.546875 C 3.28125 -2.898438 3.179688 -3.164062 2.984375 -3.34375 C 2.796875 -3.53125 2.515625 -3.625 2.140625 -3.625 C 1.878906 -3.625 1.628906 -3.578125 1.390625 -3.484375 C 1.148438 -3.398438 0.945312 -3.285156 0.78125 -3.140625 L 0.53125 -3.546875 C 0.738281 -3.722656 0.984375 -3.859375 1.265625 -3.953125 C 1.554688 -4.046875 1.863281 -4.09375 2.1875 -4.09375 Z M 2 -0.390625 C 2.300781 -0.390625 2.5625 -0.457031 2.78125 -0.59375 C 3.007812 -0.738281 3.175781 -0.945312 3.28125 -1.21875 L 3.28125 -1.890625 L 2.015625 -1.890625 C 1.316406 -1.890625 0.96875 -1.644531 0.96875 -1.15625 C 0.96875 -0.914062 1.054688 -0.726562 1.234375 -0.59375 C 1.421875 -0.457031 1.675781 -0.390625 2 -0.390625 Z M 2 -0.390625 "/></g></g></g><g fill="#06333d" fill-opacity="1"><g transform="translate(29.365961, 7.33186)"><g><path d="M 0.765625 -5.734375 L 1.3125 -5.734375 L 1.3125 0 L 0.765625 0 Z M 0.765625 -5.734375 "/></g></g></g><g fill="#06333d" fill-opacity="1"><g transform="translate(31.444806, 7.33186)"><g/></g></g><g fill="#06333d" fill-opacity="1"><g transform="translate(33.469554, 7.33186)"><g><path d="M 3.234375 0.046875 C 2.691406 0.046875 2.207031 -0.0703125 1.78125 -0.3125 C 1.351562 -0.550781 1.015625 -0.878906 0.765625 -1.296875 C 0.523438 -1.710938 0.40625 -2.179688 0.40625 -2.703125 C 0.40625 -3.222656 0.523438 -3.691406 0.765625 -4.109375 C 1.015625 -4.535156 1.351562 -4.863281 1.78125 -5.09375 C 2.21875 -5.332031 2.703125 -5.453125 3.234375 -5.453125 C 3.640625 -5.453125 4.007812 -5.382812 4.34375 -5.25 C 4.6875 -5.125 4.976562 -4.929688 5.21875 -4.671875 L 4.859375 -4.3125 C 4.429688 -4.738281 3.894531 -4.953125 3.25 -4.953125 C 2.820312 -4.953125 2.429688 -4.851562 2.078125 -4.65625 C 1.734375 -4.457031 1.460938 -4.1875 1.265625 -3.84375 C 1.066406 -3.507812 0.96875 -3.128906 0.96875 -2.703125 C 0.96875 -2.285156 1.066406 -1.90625 1.265625 -1.5625 C 1.460938 -1.21875 1.734375 -0.945312 2.078125 -0.75 C 2.429688 -0.5625 2.820312 -0.46875 3.25 -0.46875 C 3.90625 -0.46875 4.441406 -0.679688 4.859375 -1.109375 L 5.21875 -0.75 C 4.976562 -0.488281 4.6875 -0.289062 4.34375 -0.15625 C 4.007812 -0.0195312 3.640625 0.046875 3.234375 0.046875 Z M 3.234375 0.046875 "/></g></g></g><g fill="#06333d" fill-opacity="1"><g transform="translate(39.026014, 7.33186)"><g><path d="M 2.1875 -4.09375 C 2.71875 -4.09375 3.125 -3.957031 3.40625 -3.6875 C 3.695312 -3.425781 3.84375 -3.035156 3.84375 -2.515625 L 3.84375 0 L 3.3125 0 L 3.3125 -0.640625 C 3.1875 -0.421875 3.003906 -0.253906 2.765625 -0.140625 C 2.523438 -0.0234375 2.238281 0.03125 1.90625 0.03125 C 1.457031 0.03125 1.097656 -0.0703125 0.828125 -0.28125 C 0.554688 -0.5 0.421875 -0.785156 0.421875 -1.140625 C 0.421875 -1.484375 0.546875 -1.757812 0.796875 -1.96875 C 1.046875 -2.1875 1.445312 -2.296875 2 -2.296875 L 3.28125 -2.296875 L 3.28125 -2.546875 C 3.28125 -2.898438 3.179688 -3.164062 2.984375 -3.34375 C 2.796875 -3.53125 2.515625 -3.625 2.140625 -3.625 C 1.878906 -3.625 1.628906 -3.578125 1.390625 -3.484375 C 1.148438 -3.398438 0.945312 -3.285156 0.78125 -3.140625 L 0.53125 -3.546875 C 0.738281 -3.722656 0.984375 -3.859375 1.265625 -3.953125 C 1.554688 -4.046875 1.863281 -4.09375 2.1875 -4.09375 Z M 2 -0.390625 C 2.300781 -0.390625 2.5625 -0.457031 2.78125 -0.59375 C 3.007812 -0.738281 3.175781 -0.945312 3.28125 -1.21875 L 3.28125 -1.890625 L 2.015625 -1.890625 C 1.316406 -1.890625 0.96875 -1.644531 0.96875 -1.15625 C 0.96875 -0.914062 1.054688 -0.726562 1.234375 -0.59375 C 1.421875 -0.457031 1.675781 -0.390625 2 -0.390625 Z M 2 -0.390625 "/></g></g></g><g fill="#06333d" fill-opacity="1"><g transform="translate(43.585553, 7.33186)"><g><path d="M 1.296875 -3.265625 C 1.421875 -3.546875 1.609375 -3.753906 1.859375 -3.890625 C 2.117188 -4.023438 2.4375 -4.09375 2.8125 -4.09375 L 2.8125 -3.5625 L 2.6875 -3.578125 C 2.257812 -3.578125 1.921875 -3.441406 1.671875 -3.171875 C 1.429688 -2.910156 1.3125 -2.546875 1.3125 -2.078125 L 1.3125 0 L 0.765625 0 L 0.765625 -4.0625 L 1.296875 -4.0625 Z M 1.296875 -3.265625 "/></g></g></g><g fill="#06333d" fill-opacity="1"><g transform="translate(46.68449, 7.33186)"><g><path d="M 4.3125 -1.859375 L 0.90625 -1.859375 C 0.9375 -1.441406 1.097656 -1.101562 1.390625 -0.84375 C 1.679688 -0.582031 2.050781 -0.453125 2.5 -0.453125 C 2.757812 -0.453125 2.992188 -0.492188 3.203125 -0.578125 C 3.410156 -0.671875 3.59375 -0.804688 3.75 -0.984375 L 4.0625 -0.625 C 3.882812 -0.40625 3.660156 -0.238281 3.390625 -0.125 C 3.117188 -0.0195312 2.816406 0.03125 2.484375 0.03125 C 2.066406 0.03125 1.695312 -0.0546875 1.375 -0.234375 C 1.050781 -0.410156 0.800781 -0.65625 0.625 -0.96875 C 0.445312 -1.28125 0.359375 -1.632812 0.359375 -2.03125 C 0.359375 -2.425781 0.441406 -2.78125 0.609375 -3.09375 C 0.785156 -3.414062 1.023438 -3.660156 1.328125 -3.828125 C 1.628906 -4.003906 1.96875 -4.09375 2.34375 -4.09375 C 2.71875 -4.09375 3.054688 -4.003906 3.359375 -3.828125 C 3.660156 -3.660156 3.894531 -3.421875 4.0625 -3.109375 C 4.226562 -2.796875 4.3125 -2.4375 4.3125 -2.03125 Z M 2.34375 -3.625 C 1.945312 -3.625 1.613281 -3.5 1.34375 -3.25 C 1.082031 -3 0.9375 -2.675781 0.90625 -2.28125 L 3.796875 -2.28125 C 3.753906 -2.675781 3.597656 -3 3.328125 -3.25 C 3.066406 -3.5 2.738281 -3.625 2.34375 -3.625 Z M 2.34375 -3.625 "/></g></g></g></g></g></svg>